<svg xmlns="http://www.w3.org/2000/svg" viewBox="0 0 2691 816" width="2691" height="816" style="width:100%;height:100%"><defs><clipPath id="a"><path d="M0 0h2691v816H0z"/></clipPath></defs><g clip-path="url(#a)"><g display="block"><path fill="#383838" d="M1691.0319748 148.20700073l-21.45000459 7.7630005 47.85800934 12.1989994 41.10299683 42.4659996 60.58400011-3.5759983 45.28499937 19.53699874 90.00800705-44.65099954-263.38800812-33.7380004z" opacity=".05"/><path fill="#E3E3E2" d="M1713.0510559 106.66699743l44.33099938 17.55999995 8.7819996-23-53.11299897 5.44000005z"/><path fill="#A0A0A0" d="M1688.64593887 156.4869957l46.74200058 11.6819992 21.99300003-43.94099998-44.91899967-17.40699959-23.81600094 49.66600037z"/><path fill="#EEEFEE" d="M1860.44594574 70.1380024l-35.8839984 46.4640007-50.06599855-39.56500054 85.94999695-6.89900016z"/><path fill="#B1B1B2" d="M1774.49497223 77.03700256l-39.10699844 91.13300324 39.48699855 37.24700165 37.28600026-8.35900116 29.99499893-80.61000061-18.80399704-15.85499955-48.85700226-23.55600357z"/><path fill="#EEEFEE" d="M1882.52604795 106.66700077l-40.36900068 9.78100014 39.05700064 19.5209999 48.92700052-19.5209999-47.61500048-9.78100014z"/><path fill="#A0A0A0" d="M1870.10699463 214.9620018l12.41899872-88.32099914-40.368999-10.1930008-29.99499942 80.61000061 57.9449997 17.90399933z"/><path fill="#D7D7D6" d="M1930.14093971 116.44700241l24.27799797 65.4979992-84.31199646 33.01799964 12.41899872-88.3219986 47.61499977-10.19400024zM1860.44596481 70.13799858l22.07999993 36.52900028-40.36899948 9.7810011-18.80400086-15.85700083 37.09300041-30.45300055z"/><path fill="#CECECE" d="M1823.3529911 100.5909996l-48.47799873 104.8259964 48.47799873-4.90099716 18.80399895-84.0680008-18.80399895-15.85699844z"/><path fill="#383838" d="M1490.20796585 305.3929961l24.95700002 6.90200016 29.56000018-10.17800021-29.07100022-3.62000012-25.44599998 6.89600016z" opacity=".05"/><path fill="#EFEFEE" d="M1497.62497902 258.29499912l20.70200038-4.03100013 13.45600057 12.31200027-34.15800095 7.24600029v-15.52700043z"/><path fill="#E2F28E" d="M1484.14505577 247.42899632l48.67399979-17.7939999-14.49100018 24.6300001-20.70300007 4.03100015-13.47999954-10.86700035z"/><path fill="#D5E76C" d="M1538.77100289 236.04100609l23.80799949 30.5359993h-30.79499912l-13.45600033-12.31199956 20.44299996-18.22399974zM1497.6249628 258.2950077l-27.97599983 2.10999966 10.37899995 22.21600056 17.59699989-8.7980001v-15.52800011z"/><path fill="#E2F28E" d="M1494.00201225 282.62099934l56.67200089-6.46900034-18.89100075-9.57500029-34.15799904 7.2460003-3.6230011 8.79800033z"/><path fill="#79AB67" d="M1525.34996986 279.04198742l-10.64600014 26.35199928h-4.91600013l5.9640001-25.25500011 9.59800017-1.09699917z"/><path fill="#7F9D6B" d="M1514.70503902 305.39300346l-17.07999992-17.07799911 4.16699982 17.07799911h12.9130001z"/><path fill="#65874F" d="M1510.72794914 301.4170041l22.0909996-13.10300016-7.46999955 17.07999993h-10.64399981l-3.97700024-3.97699976z"/><path fill="#383838" d="M1515.1660099 282.62100077h8.73799992l1.4460001-3.57800007-9.59700012 1.09600001-.5869999 2.48200006z" opacity=".1"/><path fill="#383838" d="M1426.23505592 209.36399537l29.37499974 5.19100017 29.36899974-7.67100025-29.03899973-2.0610001-29.70499975 4.54100018z" opacity=".05"/><path fill="#79AB67" d="M1465.62295198 193.75799894l-10.6329999 14.98799992h-4.9119997l5.95799971-14.36499977 9.5869999-.62300015z"/><path fill="#7F9D6B" d="M1454.99096107 208.74700737l-17.06200027-9.7159996 4.16200018 9.7159996h12.9000001z"/><path fill="#65874F" d="M1451.01900196 206.48500752l22.06599999-7.45399975-7.4619999 9.7159996h-10.63199997l-3.97200012-2.26199985z"/><path fill="#383838" d="M1455.45003414 195.79199386h8.73000002l1.44400024-2.03399992-9.5880003.62199995-.58599996 1.41199997z" opacity=".1"/><path fill="#EFEFEE" d="M1443.65000916 181.95499802l14.49499964-2.2909999 9.42299962 7.00199986-23.91799926 4.12199974v-8.8329997z"/><path fill="#D5E76C" d="M1437.92798996 168.87699318l24.12300014-4.14000034-3.90600013 14.92700004-14.49499989 2.29100037-5.72200012-13.07800007z"/><path fill="#E2F28E" d="M1468.00201178 173.34700394l16.97699976 1.36199999-17.4119997 11.9579997-9.42199994-7.00299984 9.85699988-6.31699985zM1443.64997196 181.95499706l-16.30800056-2.29199981 3.98800039 16.12999916 12.32000017-5.00499964v-8.8329997z"/><path fill="#D5E76C" d="M1443.65003967 196.5680046l38.83200074-5.99600016-14.91400052-3.90600026-23.91800022 4.1230002v5.77900023z"/><path fill="#383838" d="M.24500275 490.31701279l113.36899769-64.78600312 117.19499767 38.0030017-115.28199768-2.1650002L.24500275 490.31701278z" opacity=".05"/><path fill="#1F878A" d="M121.34399986 458.1269989h-20.68799972V327.227005h20.68799972v130.8999939z"/><path d="M121.34300041 389.69001389l-20.68700027-18.90600014V332.787014h20.68700027v56.90299988z" opacity=".2"/><path fill="#3B8970" d="M52.86000061 336.79898834l100.73599815 26.64900208 73.395998-33.59799958 19.0149994-44.2870011-4.72599793-78.80700067-111.31599998 38.00600052-62.12500191 37.13400007-14.97999573 54.90299868z"/><path fill="#5BBB9C" d="M124.15699935 203.60100174l-94.12899947-46.37599945L0 217.98800182l130.33499908 36.06800175 110.9449997-47.30000186-39.63199616-51.59600186-77.49100327 48.44100189z"/><path fill="#5BBB9C" d="M198.352005 124.38999939l-74.19500255 79.21299744-94.12900257-46.37799645 43.50500107-55.24200249 80.06299972-35.4739952 44.75600433 57.8809967z"/><path fill="#459E82" d="M124.15699387 203.60200119l74.1949997-79.21199799 3.29499816 30.77099896-77.48999786 48.44099903z"/><path fill="#7CD0B4" d="M153.59700394 66.50899887l-52.55700112 84.29799652-27.50700187-48.82399845 80.06400299-35.47399807z"/><path fill="#459E82" d="M23.15399933 272.75101233l29.70500088 64.04899835 77.47499942-82.74399757L0 217.98801422l23.15399933 54.7629981z"/><path d="M153.59600258 66.51000977l-52.55700112 84.29799652 9.06400109 45.86999702 20.23099983 57.37800026-107.1790036 18.69599915 29.70500183 64.04800033 100.73600197 26.64900208 87.68500328-156.69200135-39.63300324-51.59500122-3.29599762-30.77099609-44.75600242-57.8809967zM246.00800323 285.56200409l-92.4110031 77.88600159 73.39500236-33.59900093 19.01600074-44.28700066z" opacity=".1"/><path fill="#383838" d="M.24499512 490.31699371l219.39899826-52.62799835 97.30400467 56.8379984-82.80200196 21.052001-189.92700195 8.41999816-43.97399902-33.6819992z" opacity=".05"/><path fill="#959797" d="M209.92499352 497.33398819l22.4549992-6.31500053 26.3139999-11.57900048 5.26300048-34.38299942-17.01600074-21.92900085-38.59399987 17.19200134 1.57800103 57.01399994z"/><path fill="#A0A0A0" d="M139.16700375 423.12799835l-8.06500018-7.19199753-9.59100008-8.21600341-14.15699958 69.76800155 37.07999992 19.37800217 23.47699928-43.74000186-28.74399936-29.99800092z"/><path fill="#B1B1B2" d="M142.79599762 426.69501495l-.50300217 7.01799965 2.1399994 63.15400124 65.49200057.4679985 2.57400131-53.32999992-69.70299911-17.30999947z"/><path fill="#D7D7D6" d="M149.35600662 403.83199883l-27.84600067 3.88800048 20.78300095 25.99199963 70.20499992 10.29200077 34.44199944-20.87600046-97.58399964-19.29600042z"/><path fill="#A0A0A0" d="M81.0569992 478.037014l-35.43599986-24.90999984-3.50800038 47.01399994 27.71700001 14.73600006 11.22700024-36.84000015z"/><path fill="#B1B1B2" d="M62.46199608 458.38999557l-8.42099953 9.47299958 15.78899956 47.01300049 43.85700035-1.40299988 16.84000015-54.03100014-68.06500053-1.05200005z"/><path fill="#D7D7D6" d="M45.62199783 453.1259904l45.60999918-4.91200019 39.29599905 11.227-76.48600006 9.82500005-8.41999817-16.13999987z"/><path fill="#383838" d="M2185.4949646 450.94100428l76.6929984-20.0270009 81.34099818 26.09800076-80.57699823 26.67000079-77.45699835-32.74100065z" opacity=".05"/><path fill="#585858" d="M2247.53101349 351.9100113h34.91600036v106.22599792h-34.91600036V351.91001129z"/><path d="M2247.51507378 382.32600594l34.92200088 19.73999977-.06200027-81.14999771-34.86000061-.00699997v61.4169979z" opacity=".1"/><path fill="#79AB67" d="M2163.09706879 342.50399399l120.18499946 34.7349968 45.9960003-43.86299706 59.51499938 10.88099861-59.12099838-116.1570015-111.66699982-.70199584-54.90800094 115.10599899z"/><path fill="#4D7333" d="M2283.2819786 377.23899841l105.5110016-32.98200226-53.36500168-104.22599792-53.36600113-.70200348 1.22000122 137.91000366z"/><path d="M2353.49001312 275.12699938l-10.67900085-20.71099901-139.17499542-2.45499993-7.79399872 12.98699951 86.61799764 46.31499863 71.02999735-36.1359992z" opacity=".1"/><path fill="#9ECB82" d="M2160.53791046 257.92100716l99.75899983 34.39700126 44.74999904-46.6760006 86.63100052 18.25399972-72.25899887-96.86299896-97.72200012-3.1550026-61.1590004 94.04300118z"/><path fill="#79AB67" d="M2260.29803467 292.31900787l131.38000488-28.42300224-58.71100235-78.95900154-54.20000076 4.20700073-18.46900177 103.17500305z"/><path d="M2268.92193556 240.38199234l.8210001.35200119 69.78500318-46.6800003-6.56100464-9.11700058-.12199783.00900077-4.38999939-5.9810009-111.269001-8.06200027-11.89800263 18.24100113 63.68500209 50.97200012-.05099988.26599884z" opacity=".1"/><path fill="#79AB67" d="M2227.04501724 102.11000061l-48.0340004 79.65800095 75.95400048 21.06200027 58.3010006-36.15000057 61.1590004 23.86799908-65.68500138-83.16699982-81.6949997-5.27099991z"/><path fill="#65874F" d="M2254.96409225 202.8310051l119.45999909-12.28299904-50.90399933-64.57099724-43.9319992 3.15499878-24.62400056 73.6989975z"/><path d="M2266.0370059 170.19999886l.83599997.35199928 61.15899944-38.60299969-9.43299866-5.6220007-.07900238.00600053-7.72900009-4.56400109-91.96500015-6.67299843-7.79399872 13.33499909 55.07900047 41.54599953-.07399988.22300148z" opacity=".1"/><path fill="#9ECB82" d="M2239.77394676 65.97399902l-52.14999962 57.19799805 75.1340003 21.05900192 39.82900095-30.88800144 45.980999 10.17800045-49.27799988-62.46600151-59.51600075 4.91900253z"/><path fill="#79AB67" d="M2262.75808716 144.22999954l85.80999756-20.70900059-38.1889987-48.08100032-11.91100025 1.05200195-19.7019992.70100021-16.00799941 67.03699875z"/><path d="M2317.77702332 84.91799772l-7.39699936-9.47800005-.07099915.00500012-6.08400154-7.71800041-29.14799984-4.5699997-35.30299847 2.81500053-7.80800247 8.7659998 41.06100094 30.89000034 44.74999989-20.71000063z" opacity=".1"/><path fill="#A5D692" d="M2279.17795515 0l-61.9920001 66.32500076 61.57999992 26.67100144 27.10199928-32.64300156 23.8030014 10.88100052L2279.17795516 0z"/><path fill="#79AB67" d="M2279.17699432 0l-.4109993 92.9960022 50.90499878-21.76200104L2279.17699432 0z"/><path fill="#383838" d="M1369.0690384 505.41999006l38.25000047 13.86000014 28.69000196-15.69000006-41.42000198-6.02800036-25.52000046 7.85800028z" opacity=".05"/><path fill="#7CD0B4" d="M1387.11896515 506.45998573l-45.31000137-52.01999855 65.51000213 53.52999878-20.20000076-1.51000023z"/><path fill="#5BBB9C" d="M1407.31898403 507.9699936l-25.46999931-62.83000184 4.72999954 45.88100052 20.73999977 16.94900131z"/><path fill="#7CD0B4" d="M1400.44902325 491.0200038l26.60000038-25.4199996-19.73000002 42.36999893-6.87000036-16.94999933z"/><path fill="#5BBB9C" d="M1782.22894478 404.25000238l-20.93100071-6.86000013 24.44000053 16.10000038-3.50899982-9.24000025z"/><path fill="#383838" d="M1770.14902878 413.4900062l27.79000056-6.62999987 30.21999967 6.62999988-33.28099966 13.34999966-24.72900057-13.34999966z" opacity=".05"/><path fill="#7CD0B4" d="M1785.73895508 413.49098587l-14.03999954-36.95999908 28.20999908 36.95999908h-14.16999954z"/><path fill="#5BBB9C" d="M1790.38895512 401.02098894l21.82999992-27.86000109-12.30999994 40.33000184-9.51999998-12.47000075z"/><path fill="#7CD0B4" d="M1803.5690527 401.5l27.32999992-6.48999977L1808.00905275 412.5l-8.0999999.98999977L1803.5690527 401.5z"/><path fill="#5BBB9C" d="M65.82899857 673.4309951l20.80999946-6.81099998-24.29999924 16 3.48999978-9.18900001z"/><path fill="#383838" d="M77.82800102 682.620996l-27.6099999-9.20999956-30.04999995 9.20999956 33.07999993 13.75999975L77.82800102 682.620996z" opacity=".05"/><path fill="#7CD0B4" d="M62.33799988 682.62000084l13.96000046-36.74000168-28.04000092 36.74000168h14.08000046z"/><path fill="#5BBB9C" d="M57.71800041 670.22098875l-21.70000076-27.6890006 12.24000037 40.08800125 9.4600004-12.39900065z"/><path fill="#7CD0B4" d="M44.61900043 670.70097423l-27.17000007-6.45000053 22.75999975 17.38000012 8.04999971.99000072-3.63999939-11.92000031z"/><path fill="#383838" d="M568.44799042 532.06097412l25.7500003-7.18100023 25.60900086 8.52100026-29.64900089 5.3399998-21.71000027-6.67999983z" opacity=".05"/><path fill="#5BBB9C" d="M599.12802982 532.06098938l-11.42000007-47.40999985v48.54000092l11.42000007-1.13000107z"/><path fill="#7CD0B4" d="M587.70900345 533.19098663l19.29000091-38.8199997-7.87000048 39.02999879-11.42000043-.20999909z"/><path fill="#5BBB9C" d="M599.12798595 533.40097904l17.98999978-21.92000007-15.8499999 11.30000004-2.13999988 10.62000003z"/><path fill="#7CD0B4" d="M587.70802975 516.67002535l-16.57999993-26.0100007 16.57999993 42.53200149v-16.5220008z"/><path fill="#5BBB9C" d="M583.51802969 522.44098878l-12.38999987-6.97999978 16.57999993 17.72999954-4.19000006-10.74999976z"/><path fill="#383838" d="M889.97898102 677.5309912l-21.64100027-9.12999976-31.5800004 9.12999976 31.86100053 10.34999978 21.36000014-10.34999978z" opacity=".05"/><path fill="#5BBB9C" d="M867.74799562 677.53098106l2.10999989-32.71000003-9.1999998-3.0899992 7.0899999 35.79999923zM865.47902012 677.53103065l-10.19000006-24.70000076-6.20099974 7.71000052 16.3909998 16.99000024zM871.1279955 676.73098183l5.32000016-24.45000077 10.69000006 4.28000021-16.01000023 20.17000056z"/><path fill="#86D5E8" d="M875.21800041 660.30101585l23.84000015-7.4710002-23.84000015-16.79900025v24.27000045z"/><path fill="#73C9DE" d="M869.34802103 652.83099365l6.61000013-28.5-24.29899978 12.60099995 17.68899965 15.89900005z"/><path fill="#86D5E8" d="M851.65896988 663.20998287l5.61999988-16.07999992-25.42000007 11.10100007 19.80000019 4.97899985z"/><path fill="#383838" d="M1635.46603203 248.31399596l-21.6409998-9.12999976-31.58000087 9.12999976 31.86100101 10.34999978 21.35999966-10.34999978z" opacity=".05"/><path fill="#5BBB9C" d="M1613.23597169 248.31400108l2.1099999-32.71000003-9.19999981-3.0899992 7.0899999 35.79999923zM1610.9669962 248.3140049l-10.19100011-24.70000076-6.2010001 7.71000051 16.3920002 16.99000025zM1616.61597157 247.51400185l5.319-24.45000077 10.69100022 4.28000021-16.01000022 20.17000056z"/><path fill="#E2F28E" d="M1619.98606014 232.02500057l25.75200081-7.94400024-23.52700043-18.71800041-2.22500038 26.66200065zM1614.73802042 225.03800678l7.92299986-31.35000038-26.72999954 13.86100018 18.80699968 17.4890002zM1597.85503006 234.79799461l6.18200016-17.68799972-27.9619999 12.20899987 21.77999974 5.47899985z"/></g><g display="block"><path d="M1164.3210907 601.0119896h43.36499786l20.41999817-13.53500176 6.05600071 10.0510006 41.8380003-2.95500184 43.11600113-23.74299907v-9.3529997l15.35700226-20.35899924-63.65000344-24.0300026-106.501997 83.9240036z" opacity=".05"/><path fill="#383838" d="M1240.71809196 568.708992l-38.0740013-6.90200042v7.35700035l2.63899993 6.4840002 28.87800026 21.87900067 6.55700111-28.8180008zM1108.90209007 538.78798962l-25.26000023-19.53600026v29.20800019l21.29100037 2.79800033 3.96899986-12.47000026z"/><path fill="#585858" d="M1238.4880867 569.16399002l25.5690006-6.88500023 29.3590008-4.32600021 4.13199997 14.8310008-63.38600158 24.74399996 4.32600021-28.36400032zM1205.28409386 593.60298967v-17.954l-20.35700035-1.70699977-20.3579998 1.70699978-.24900056 25.36200046 40.9640007-7.40800047zM1106.41308975 539.74298477l36.67400193 10.1769991 33.98800064 15.01900005-12.50600052 10.70999908-61.93600083-6.48399925 3.77999878-29.42199898zM1287.75208569 551.05598879l27.6619997 3.91299963 4.43600082-23.72999954h-20.2740004l-14.48800064 6.14299965 2.66400052 13.67400026z"/><path fill="#858585" d="M1202.64509201 561.80698013l82.44199753-24.42500019 8.32799911 20.57099962-54.92799854 11.21099997-35.8419981-7.3569994zM1184.8020897 554.96298027l-50.6399994-19.79199982-15.8730011.08300019-11.8769989 4.48799991 69.15799904 24.65899945 6.68000221-3.89900017 2.55199814-5.53899956z"/><path fill="#9F9F9F" d="M1106.41309 539.7429905l27.74999975-4.5710001 13.93300057-25.23400021-27.80800057 3.79899978-36.64699936 5.51500035 22.7719996 20.49100017zM1202.64408684 561.80699968l2.63899994 13.84200049h-40.7140007l20.23200035-20.68600083 17.8430004 6.84400034zM1285.08808517 537.38198471l-2.68499946-27.4300003 12.93900013 6.8600006 24.50800037 14.42700005-34.76200104 6.14299965z"/><path fill="#E1D13F" d="M1134.16308594 535.17198563l-27.75-43.7229991 19.58599853-16.12999964 22.82799912-18.79899978 56.45600033 46.4989996 68.41700077-89.91599751 20.79299545 25.2899971 24.62200165 29.94799995-23.772995 48.47100067-10.25400543 20.57100106-82.44399738 24.42499542-68.48099804-26.63599777z"/><path fill="#CDBA28" d="M1298.57209015 403.71598625l-93.2889986 99.30200386-56.55600262-46.37900352-3.41799927-68.47799874 25.39500046-23.09100341 40.2830019 27.17100143 39.1469984-34.7670021 48.43799973 46.24200248z"/><path fill="#E1D13F" d="M1210.98809361 392.24098969l-40.28399968-27.17200065-8.4659996-14.5769999 87.89500046-16.72100068 8.42699814 13.24200058-8.42699814 10.46099997-39.14500118 34.76700068z"/><path fill="#C2A040" d="M1298.57309723 403.71598434l-41.24699974 43.90399933-17.8369999-21.23699969 59.08399964-22.66699964z"/><path fill="#E1D13F" d="M1170.70409262 365.06899261l40.28299844 27.17300082-30.14199829 32.96300077-47.08599853-26.54100084 36.94499838-33.59500075z"/><g><path fill="#C2A040" d="M1162.23708725 350.49198914l87.89600372 6.98200035-39.14600181 34.76799965-40.28299904-27.17199994-8.46700287-14.57800006z"/></g><g><path fill="#EEDE74" d="M1170.70409012 548.45898438l-21.87700272-39.87799836 56.45600176-63.0189991-11.52199984-34.4829998 17.22599972-18.83799743 57.40799916 68.76799774-22.89899826 25.21899986 25.32500076 30.8599987-23.6550026 31.5280037-44.52199888 13.19099426-31.9399991-13.34799958z"/></g><g><path fill="#FFFEFF" d="M1245.49608612 486.22799683l-40.21399832-40.66600037-28.20799875 67.91400146 25.56899834 48.33100129 42.85299873-75.57900238z"/></g><g><path fill="#EEDE74" d="M1180.84509087 425.20499277l24.43800068 20.35699988 34.20600032-19.17799998-28.5020005-34.14199972-30.1420005 32.96299982z"/></g><g><path fill="#CDBA28" d="M1162.23708725 350.49298954l38.02900171-25.05800056 49.86700201 8.33600044-87.89600372 16.72200012z"/></g><g><path fill="#C2A040" d="M1200.26708794 325.43499088l25.9850006-32.80700016 23.88100053 41.14400101-49.86600113-8.33700085z"/></g><g><path fill="#CDBA28" d="M1106.41308975 491.44799805l42.41400147 17.13399934-14.66400051 26.58999968-27.75000096-43.72399902z"/></g><g><path fill="#CDBA28" d="M1270.82308578 517.08799267l48.29199982-48.74800015-34.02600002 69.04199982-14.2659998-20.29399967z"/></g><g opacity=".2"><path fill="#EEDE74" d="M1245.49608612 486.22799683l-40.21399832-40.66600037-28.20799875 67.91400146 25.56899834 48.33100129 42.85299873-75.57900238z"/></g><g><path fill="#C2A040" d="M1205.28308868 445.56198502l-56.55599975 11.07699918 26.67999983 22.27299929 29.87599992-33.34999847z"/></g><g><path fill="#92780E" d="M1178.52609062 531.28799295l13.74000025-10.7970004 28.26600027 28.6640005-23.46900034 2.10200024-18.53700018-19.96900034zM1194.80008793 512.30898535l10.6330002 10.518 10.33500021-7.20699977-8.48100018-17.22700024-12.48700023 13.91600001zM1210.98808575 527.62898827l19.98500013-15.78499985 10.36500025 12.62599987-25.17199993 14.56199985-5.17800045-11.40299987z"/></g></g><g display="block"><path fill="#C3A040" d="M1215.58710799 379.6067025z"/><path fill="#CEBB29" d="M1244.58710799 402.6067025zM1175.58710799 402.6067025z"/><path fill="#EFDE75" d="M1209.58710799 417.6067025zM1209.58710799 417.6067025z"/><path fill="#FCF8E3" d="M1216.58710799 474.6067025z"/></g><path fill="#383838" d="M2092.46002197 723.94000626l-271.30000615 36.81299972-76.82999873 8.23800087-104.28500366 8.34300041-96.53601074-30.09200096 211.62001419-49.47400093 337.3310051 26.17200089z" opacity=".05" display="block"/><path fill="#CCA88E" d="M1636.03387141 755.08701324l-44.34199977-75.97800064 2.61399842-10.41600036 10.4300022-11.74200058 71.53999902 84.59300232-40.24199987 13.54299926z" display="block"/><path fill="#E3C8B3" d="M1705.24393463 695.37999344l-43.9279995 70.00600052-25.28199958-10.29899979 31.3179996-78.49300003 10.648-27.00000381 27.03900146 27.00000381.20499802 18.7859993z" display="block"/><g display="block"><path fill="#9A7A64" d="M1604.73786926 656.94999504l-16.7340002-4.45699978-20.97299958-2.13800049h-5.90700054l-11.8579998 4.99000073 42.42700005 23.76200008 13.04500007-22.15700054z"/><path fill="#CCA88E" d="M1567.030869 650.35599709l5.94800044-23.30900002-23.7140007 28.29800034 17.76600027-4.98900032z"/></g><g display="block"><path fill="#CCA88E" d="M1957.3079834 680.6180191l66.74100113 24.96899939 4.44900131 9.40500021-4.44900131 7.83599949-66.74100113 1.11199951v-43.3219986zM2054.2379837 706.04201984l21.53600002 3.35300017 14.31599927 10.0800004 2.37000084 4.46500015h-19.11200007l-19.11000006-17.89800072z"/><path fill="#E3C8B3" d="M2024.04898262 705.58701897l21.13599968-13.6040001 28.16399956 31.95800019-49.29999924-1.11200047v-17.24199962z"/><g><path fill="#9A7A64" d="M1957.3079834 723.94101715l14.91800022-37.74199867-14.91800022-5.57999993v43.3219986z"/></g></g><g display="block"><path fill="#9A7A64" d="M2001.24397373 611.70799541v20.8390007l-3.19500065.82299996-23.77900028-14.13200045 26.97400093-7.5300002z"/><path fill="#E3C8B3" d="M1907.25097656 726.72200012l2.77999878-29.09000015 15.52300072-30.9370017 21.73999977-71.29900218 13.34899902 17.1550026-.5569992 17.15600014-2.78000069 94.23399925-50.0549984 2.78100204z"/><path fill="#CCA88E" d="M2001.24497414 611.70799625l-53.95000077-16.31200016 12.79200077 34.31200028 41.158-18.00000012z"/></g><g display="block"><path fill="#CDBA28" d="M1876.66093636 637.3340187l48.89500045 29.36000252-18.30400085 60.02799798-42.82600021 8.34200286V688.4240203l12.2350006-51.09000158z"/><path fill="#E1D13F" d="M1838.284935 666.69402313l38.37600136-29.35900116-12.23500061 97.7290001-22.80500031 4.4490013-5.56200027-36.35000038 2.22599983-36.46899986z"/></g><g display="block"><path fill="#846B0C" d="M1782.74498272 643.84700775l9.5519991 42.8939991v39.98200035l-45.36399842 25.0909996 11.82599926-108.36100006 23.22200012-14.8239975.76399994 15.21799851z"/><path fill="#A88A12" d="M1782.74498367 643.8460083l9.5529995 82.87599945 49.32299995 12.79100037-3.33699989-72.81799889-31.46000004-26.06500053-24.69699955-13.02099991.61800003 16.23699951z"/></g><g display="block"><path fill="#9A7A64" d="M1614.96596909 658.74103642l68.63999939 5.30200004 13.51599884 22.69699955-82.15599823-27.9989996z"/><path fill="#383838" d="M1557.95496655 540.75202942l-9.96399975 22.21300077 30.93400001 14.2220006 11.23399925-38.20600128-32.20399951 1.7709999z"/><path fill="#616465" d="M1591.56896687 499.37303543l-42.30300045 26.2810011 29.65799999 51.5330019 24.56400013-60.3880024-11.91899967-17.4260006z"/><path fill="#585858" d="M1549.26696777 525.65303612l35.0369997 18.43200016 12.388999 19.8039999-17.76799918 13.29800033-29.65799952-51.5340004z"/><path fill="#92780E" d="M1589.28396606 556.74503708l-27.2329998 29.35599947 19.23499966 19.85399961 2.30700016-14.19799995-5.05200028-5.32599974 7.20700001-7.94599986 5.36699963-6.21600032-1.83099938-15.52399921z"/><path fill="#E3C8B3" d="M1705.03896332 625.42103195l-25.08999634 37.14999771-2.89100266-.1899948-29.7019987 1.66099547-32.39000035-5.30200195-47.93499756-8.38399505 24.5379982-150.98400116 87.40999985 75.60699892 26.05999756 50.44200086z"/><path fill="#CCA88E" d="M1662.24096489 602.6850357l-14.88500023 61.3560009 32.59300137 4.4260006 38.06899929 40.50500107 6.80600166-75.19000149-38.62400116-52.22200107-23.95900093 21.125zM1609.05496502 546.68103218l2.53100014 5.3890009-5.0869999 31.03399944-10.5960002-26.6040001-4.2090001-10.19599914 17.36100006.3769989zM1621.86996555 553.6980362l10.0270002-3.81299973 20.8849995 10.08299923-24.62899923 16.9760003-11.75499964 18.8449998 5.47199917-42.0909996z"/><path fill="#9A7A64" d="M1671.95096397 631.37103987l47.51599884 21.12200021.38700104-15.15799999-23.93900013-41.3909998-25.88700008 6.52499963 1.92300033 28.90199995z"/><path fill="#EAD3C2" d="M1621.87097073 553.69803047l-10.28500045-1.62799835-6.84900033 41.7880001 11.66100049 1.9299984 5.47300029-42.09000015z"/><path fill="#9A7A64" d="M1616.39896631 595.78803825l-7.2199999 6.07599974-4.4419998-8.00599956 11.6619997 1.92999982zM1589.98696518 509.10803223l70.72899818 98.91400146 17.6930027 7.7649994 1.5399971-18.59700013-48.05199909-47.30500078-40.32799816-50.51200056-1.58200073 9.7350006z"/><path fill="#383838" d="M1602.87896633 563.76503699c0 3.41699989-2.76999998 6.18699987-6.18599987 6.18699987-3.41599989 0-6.18599987-2.76999998-6.18599987-6.18699987 0-3.41600006 2.76999998-6.18499987 6.18599987-6.18499987 3.4159999 0 6.18599987 2.76899981 6.18599987 6.18499987zM1640.7759657 570.89003754c0 3.41599989-2.76999999 6.18599987-6.18699988 6.18599987-3.41600006 0-6.18499987-2.76999998-6.18499987-6.18599987 0-3.4159999 2.76899981-6.18599987 6.18499987-6.18599987 3.41699989 0 6.18699987 2.76999998 6.18699987 6.18599987zM1609.36296558 535.00103378l-17.67000007 11.30400038 17.36100006.37599993.30900001-11.6800003z"/><path fill="#92780E" d="M1647.06996536 617.50803661l-38.28099966-12.66499996-27.2069993 4.01000023 21.1409998 37.6420002 44.34699916-28.98700047z"/><path fill="#585858" d="M1635.20997047 618.33402967l-45.33800125-5.91799974 10.88500023 19.90100002 10.5670004 1.46399975 23.88600062-15.44700003z"/><path fill="#FFFEFF" d="M1623.26896954 626.05803013l-27.95499897-3.69000006-5.44200135-9.95200014 45.33800125 5.9180001-11.94100093 7.7240001z"/><path fill="#92780E" d="M1676.27696228 602.29403305l-4.32600021 29.07800007 47.90200042 5.9630003.80399895-35.82999993-43.5759983.72799874 9.43799877 6.6590004 19.36500072.69200038 5.38000012 15.73899985-26.5350008-3.6939999 1.77000045-13.34100043-10.22200012-5.99399948z"/><path fill="#A88A12" d="M1719.85296583 637.33503723l-14.60899973 58.04500008 12.77399993 13.59300041 6.806-47.842-4.9710002-23.79600049z"/></g><g display="block"><path fill="#616465" d="M1792.79595947 610.27603912l14.02799988 30.3540001-43.92199898 5.86600112-69.24999809-50.88600158 99.1439972 14.66600036z"/><path fill="#585858" d="M1743.43296277 565.13503647l77.72700275 22.3199997-58.25700188 59.0400009-23.38400078 6.65200044-34.480999-27.72599984-6.81100082-8.37100076-32.30700302-23.0829997 77.51300275-28.83200074z"/><path fill="#858585" d="M1749.17096329 583.94803524l71.98900223 3.50699997-74.52500153-23.51199913-2.3050003 7.93999958 4.8409996 12.06499958z"/><path fill="#616465" d="M1661.31596756 482.02302933l76.15099716 9.6119995 11.70299912 92.314003-46.76199818-49.53700125-41.0919981-52.38900125zM1579.83096313 482.21203613l82.41000271 120.47399903 100.66200352-2.80799866-84.8350029-59.1340009-98.23700333-58.53199947z"/><g><path fill="#9F9F9F" d="M1579.83096313 482.21203232l58.91600419-26.36999893 124.15600204 144.03599548-183.07200623-117.66599655z"/></g><g><path fill="#828385" d="M1796.39697361 612.5500269l10.42700005 28.07999992-29.05200005-9.20499993 18.625-18.875z"/><path fill="#383838" d="M1724.4569645 600.9500351l15.06299972 52.19599914-34.48099971-27.72499955-28.76299977-23.12699973 48.18099975-1.34399986z"/></g></g><g display="block"><path fill="#CCA88E" d="M1717.44099045 731.50702286l-77.39599991 15.42200064-5.08000183 6.32500005 1.06900024 10.47700024 80.4469986 5.26000023 3.37200165-20.20900059-2.41199875-17.27500057z"/><path fill="#E3C8B3" d="M1719.85298538 637.33502197l43.05000115 9.16000366-18.57300043 122.4960022h-27.84900046l3.37199974-131.65600586zM1640.04498768 746.93002564l-23.64700031-15.42199952-7.0369997 18.74099946v12.73000026l26.67199992.7529993 4.01200009-16.8019995z"/><path fill="#CCA88E" d="M1616.39798737 731.50701904l-31.36199952 29.2460003 24.32600022 2.22599983 7.0359993-31.47200013z"/></g><g display="block"><path fill="#383838" d="M2685.93811035 730.67502165l-145.0000062-49.51399946-130.0920043 43.29199957 140.11100412 50.41799951 134.98100638-44.19599962z" opacity=".05"/><path fill="#705377" d="M2481.37209892 692.44002151l-33.06199836 23.7779994v9.26599932l69.39899826-3.5189991 1.3429985-13.48700025-14.76699829-10.63200018-22.9130001-5.40599919z"/><path fill="#A488AE" d="M2550.81809616 639.1180191l22.20499897 83.54899979 22.4790001-2.26099777 16.34100055-14.35800171 10.57699776-94.27399826-41.42399884-1.84700012-30.17799854 29.19099807z"/><path fill="#705377" d="M2611.7931037 704.77601624l25.70199823 22.97900056-.11499787 7.85199976-62.73700141 2.05500126-1.62599755-15.1550008 38.7759986-17.73100078z"/><path fill="#A488AE" d="M2555.73809814 626.7960205l-36.68599864 85.23200227-17.00700024-10.78900147-20.67299843-8.79800033 3.26199722-85.54500199 71.1040001 19.90000153z"/><path fill="#8F7098" d="M2622.41909027 611.7750187l-71.60199785 27.34399985-66.18399763-32.22399902 99.73999786 1.59799957 38.04599762 3.2819996z"/></g><path fill="#A8778E" d="M2454.47802734 454.63999612l6.27499962 17.6769995 15.77600026 19.95300102 12.69900012-5.58200073 6.54199982-33.38799977-2.47800064-36.29200053-38.81399918 37.63200051z" display="block"/><g display="block"><path fill="#A8778E" d="M2526.2780838 399.26999664l66.65199852-5.3829956 10.22799873 17.55599975 31.48799897 13.04899598-7.52500153 190.79699707h-90.86499596l-46.61799812-10.37299347 3.65499878-187.90900422 32.98500061-17.7369995z"/><path fill="#705377" d="M2586.34308815 407.57699776l-6.79199982 32.70299911-43.88899994 28.83600044-11.5229988-41.6090002 2.13999938-28.23700047 8.95599938.91699982 16.37500048 11.25699997 34.73299932-3.86699867z"/><path fill="#A488AE" d="M2592.9290886 393.88699722l10.22599792 17.55700064-12.49199868 15.3840003-19.21099996 11.70499897-19.84199953-27.08899927-21.38199997 17.21900034-5.230999-13.45100033 1.28199769-15.94099987 10.16900062-11.05999946 56.4810009 5.67599868z"/><path fill="#C199AB" d="M2535.66108322 469.11799812l85.26399994-24.26999998-17.77000046-33.4039998-67.49399948 57.67399978z"/><path fill="#C199AB" d="M2535.66108513 469.11700058l.59399986 146.17200088-61.2179985-7.80599975 18.25499916-190.47399902 15.90200019-3.6360016 17.08300042-14.1040039 9.38399887 69.84800339z"/><path fill="#DBB0C3" d="M2526.27808475 399.27000046l-32.98499965 17.7369995 42.36800003 52.11100007-9.38300038-69.84799957z"/><path fill="#886072" d="M2549.1270876 497.81099756l8.74000017 8.74099962 8.74200017-8.74099962-8.74400017-8.74299963-8.73800018 8.74299963zM2549.1270876 541.22799792l8.74000017 8.73799978 8.74200017-8.73799978-8.74400017-8.74199977-8.73800018 8.74199977zM2549.1270876 584.64200537l8.74000017 8.74200018 8.74200017-8.74200018-8.74400017-8.73899977-8.73800018 8.73899977z"/><path fill="#8F7098" d="M2516.36708641 489.23799515l-8.85299969 3.0340004-12.31499958-35.93700028 8.85299969-3.03499985 12.31499958 35.93799973z"/><path fill="#A8778E" d="M2528.52308655 494.66500187h-32.73600006v-7.97599983h32.73600006v7.97599983z"/></g><g display="block"><path fill="#886072" d="M2634.64601803 424.49301147l35.25199985 98.62400055-27.07399988-7.96300125-15.99599981-11.08299827 7.81799984-79.57800103z"/><path fill="#693F53" d="M2669.89901733 523.1170082l-41.30900001 54.86299897-19.92900086-4.0550003-12.99799919-17.76499844 31.16499996-52.08799839 43.0710001 19.04499817z"/><path fill="#CCA88E" d="M2595.66301823 556.1600113l-9.32000065 13.15500068 27.03200054 30.0380001 15.21600056-21.37300011-32.92800045-21.82000068z"/><path fill="#383838" d="M2613.37501574 599.3530097l13.74399995 15.9380002 1.47200013-37.30999946-15.21600008 21.37199926z" opacity=".2"/></g><path fill="#886072" d="M2476.5291214 492.26899338l-34.6179992-59.07999802-14.90899932 1.0039978-16.60099983 11.89299965 25.22199917 65.35899926 40.90599918-19.1759987z" display="block"/><g display="block"><path fill="#CCA88E" d="M2441.91100353 433.18899918l10.3270002-37.68800164-9.21200013-3.62199974-12.13800025 18.76900065 3.37000036 10.26200044 7.65299982 12.27900029z"/><path fill="#E3C8B3" d="M2441.9110012 433.18899918l-31.51099967 12.89800071-15.41300011-20.71600085 15.41399956-14.72300023 17.04600048-7.03700066 14.46399975 29.57800103z"/><path fill="#CCA88E" d="M2427.44700241 403.6099987l-27.89600038-21.76099968-15.37400008 17.4199996 10.81000042 26.10199976 32.46000004-21.76099968z"/></g><g display="block"><path fill="#E3C8B3" d="M2469.42604828 360.32999802l63.86800003 18.50600052 18.31600022 32.60700225 21.78499961-16.04400634 19.5360012-1.51199341-1.69100189-19.00100327 6.84799958-10.00299835 3.12700271-17.58100128 9.22200013 1.27500152 15.6269989-24.2110014-13.73699951-11.0350002-21.94000245 16.93500078-10.20800018-8.30000067 37.43800354-63.74899912-19.97000122-21.1629982-70.31700134-6.25200653-20.11700058-13.84899902-16.5739975 42.38700104-21.21300125 100.99000168z"/><path fill="#CCA88E" d="M2499.67005157 260.11699295l9.47799874 23.78000021 14.98900032 37.05599833 22.54099941-27.37899828 24.77399922-19.9000001-27.16699887-6.58400059-9.05199998 1.98500061-8.95499999-6.0699997-8.67999935-7.07199859-17.9279995 4.18399811z"/><path fill="#886072" d="M2528.17405033 250.95199633l-28.5039997 9.16499996 26.6090002 2.88899994 1.8949995-12.0539999zM2544.28604889 267.0909946l27.16600037 6.58200001-23.07299996-18.35400009-4.09300041 11.77200008z"/><path fill="#EAD3C2" d="M2526.2780472 263.0059967l-14.22100031 54.97599984 12.07900047 2.96999931 20.14900017-53.86100006-18.00700033-4.08499909z"/><path fill="#9A7A64" d="M2512.05904913 317.98099852l3.6630001 9.57199955 8.41499997-6.59999979-12.07800007-2.97199976zM2495.70204735 338.31599045l15.9329996 2.22099995 27.88099957 3.88699995-3.65299987 5.68399991-23.8119998-3.023-15.79900026-2.00599992-.54999924-6.7629999zM2614.66504478 324.0479865l-16.18799972 9.40100003 12.829 1.1630001 3.35899972-10.56400012zM2603.1550498 347.56800127l-12.49199963-2.0119996 7.4239998 19.3279991 5.06799983-17.3159995zM2469.42504883 360.3299942l78.95400238 15.32599926 18.0680008.625-14.8370018 35.16299915-19.72700025-30.22599935-62.45800113-20.88799906z"/><path fill="#CCA88E" d="M2597.64704609 237.05399323l-26.19400024 36.61700057-23.0710001 101.98600007 13.40399932 2.35400009-10.17599868 33.43299865 41.32099914-17.5569992 5.15700054-29.00400162 5.0710001-17.31299972-12.49600029-2.0149994-.27600002-15.28899955-10.20800018-8.30100012 37.43900013-63.74799776-19.97099972-21.16300201z"/><path fill="#585858" d="M2492.1440487 205.45299417l15.06700038 11.50000018 19.18599987 16.5159998 8.835001-28.781-2.13400079-28.719-40.95400047 29.48400002z"/><path fill="#969797" d="M2533.09904861 175.96899414l99.6040001 46.44999886-17.96099854 12.22700119-19.07800102 4.1309986-69.2670002-5.30799865 6.70199966-57.5z"/><path fill="#858585" d="M2595.6630478 238.77699673l19.10400056 19.36099994 14.20900011.20199967 11.87900066-5.66799927-8.14900112-30.25-37.04300022 16.35499966z"/><path fill="#585858" d="M2614.7670536 258.1369934l-37.52599907 64.98399926 12.8729992 9.23599815 21.84100008-17.31499862 12.5909996 9.7119999-8.52099979 15.15899848 41.64999902-18.38499832-16.8199997-68.85699845-26.08799934 5.4659996z"/><path fill="#9A7A64" d="M2590.66305017 345.55600166l7.42599977 19.32799912 5.06599986-17.31599951-12.49199963-2.0119996z"/><path fill="#383838" d="M2512.8980503 283.89599554c0 3.0089999-2.43899988 5.44899996-5.44799995 5.44899996-3.00900006 0-5.44799995-2.44000006-5.44799995-5.44899996 0-3.00899999 2.4389999-5.44699995 5.44799995-5.44699995 3.00900007 0 5.44799996 2.43799996 5.44799996 5.44699995zM2552.17004585 292.88799286c0 3.00900006-2.43799996 5.44799995-5.44699995 5.44799995-3.0089999 0-5.44899996-2.43899989-5.44899996-5.44799995s2.44000006-5.44799996 5.44899996-5.44799996c3.00899999 0 5.44699995 2.4389999 5.44699995 5.44799996z"/></g><g display="block"><path fill="#EFDE75" d="M960 93z"/><g><path fill="#EFDE75" d="M1236.18414006 347.137985z"/></g><g><path fill="#EFDE75" d="M1311.80829814 465.24175075z"/></g><g><path fill="#EFDE75" d="M1029.78280002 130.4756056z"/></g><g><path fill="#EFDE75" d="M993.07635054 130.27894372z"/></g><g><path fill="#EFDE75" d="M1010.27077968 104.8577871z"/></g><g><path fill="#EFDE75" d="M1087.27077968 163.8577871z"/></g><g><path fill="#EFDE75" d="M1196.13438445 277.74388867z"/></g><g><path fill="#EFDE75" d="M1152.89936619 228.7595801z"/></g></g><g display="block"><path fill="#9F9F9F" d="M923.16800499 187.54200745l-33.38199997 6.44699955 2.22599983 16.68500018 3.408 20.24399972 16.87700033-11.75099945 10.87099981-31.625z"/><path fill="#E2E2E2" d="M885.83499146 172.1460085l9.24000072 25.09000014 28.092-9.69300007-37.33200072-15.39700008z"/><path fill="#9F9F9F" d="M898.98999214 252.10501003l6.48999977 5.27999974 13.69799996 2.80000019 11.97200012-25.51799965-19.06999993 6.37599992-13.08999992 11.0619998z"/><path fill="#CECECE" d="M912.29700232 219.1660099h-22.5109992l9.20399951 32.93799973 32.1599989-17.43799985-18.85299921-15.49999988zM773.71699905 241.0430069l-27.55399894 7.54600048-8.02899933 21.03499985 16.57799911 3.05700016 25.4109993-13.9890002-4.24300003-3.96200002 9.1270008-16.47800064-11.2900009 2.79100037z"/><path fill="#9F9F9F" d="M770.14400005 221.81800842l-38.29500103 10.05600024 14.31400109 16.71499967 26.06399917 4.92300034 13.15299988 1.27899933-5.57499885-13.7469995-9.66100026-19.22600008z"/><path fill="#E2E2E2" d="M770.2519989 194.24800873l-7.57199955 1.63500023-5.7680006-7.37199974-25.06200028 43.3619995 39.15800095-5.41200065-.75600052-32.21299934z"/><path fill="#9F9F9F" d="M791.9109974 259.20900536l-53.77799989 10.4139998 11.55200005 8.56599974 13.91600036 7.38999939 32.2460003-14.94499922-3.93600083-11.42499971zM890.62799219 171.81800842l.078.32800001-.034-.328h-.044z"/></g><g display="block"><path fill="#9A7A64" d="M978.0909977 261.34000397l10.23899984-9.04199982 8.84200048-15.05200005-.64800071-34.37800025-20.56599951 20.9119997-6.06600046 24.03100013 8.19900036 13.52900029z"/><path fill="#3B8970" d="M1032.2159977 139.93200684l-3.17500115 2.34000015-14.13499927 25.0189991-5.87200022 8.29899978 1.49499988 16.8509996-13.35699987 9.02399993 2.00299978 6.6180005-8.27399969 19.21800042-7.69199943 5.02399826-9.02500153 19.78100204 14.14600086.19199753 15.50599987-44.00399876 14.29200047-12.0079999-.54500008-21.06900071 14.63300038-35.28499794z"/><path fill="#5BBB9C" d="M992.64700139 231.333004l6.52799975-23.2489996-2.00299978-6.61800003-13.96299982 30.8579998 9.43799985-.99100017z"/><path fill="#7CD0B4" d="M1029.04100037 142.27100754l3.17499923-2.3390007-5.31799984.40400123-17.86399936 35.25399971 7.35499954-4.3060007 12.65200043-29.01299954z"/><path fill="#E3C8B3" d="M965.81599522 232.32300377l5.3770008-18.47799969 22.67199994-14.72399998 3.30700016 2.34399987-4.52500058 9.79500007-9.38399982 8.22399998-.0530001 12.83899975-3.97899996 8.71999931-9.33900023 6.76600075-4.07600021-15.48600006z"/><path fill="#CCA88E" d="M1010.74199581 202.4920044l-1.70800018 38.6109991-20.70400047 11.19500065 8.84200024-50.83200073 13.57000041 1.02600097z"/><g><path fill="#7F9D6B" d="M982.4450016 285.33200455l-22.63300037-45.79399872-19.4119997 24.30299854-21.62700081 45.04899883 63.67200088-23.55799865z"/><path fill="#9ECB82" d="M898.98899841 252.10500145l-2.75999832 26.50900078 29.1899991 24.02300071 14.97999907-38.79700088-41.40999985-11.73500061z"/><path fill="#65874F" d="M903.42499924 314.08900452l41.29800033 6.3219986 25.16899872-17.77400018 6.88500214-20.81499989-51.358001 20.8149999-21.9940002-23.30999995-35.2140007-36.388 35.2140007 71.15000152z"/><path fill="#3B8970" d="M965.81599897 232.32300186l-6.00500005 7.21500015 16.9659996 42.28500033-32.0550003 38.58800077 9.3600006.84000016 33.67200089-37.0680008-21.93800074-51.8600006z"/></g></g><g display="block"><path fill="#7F9D6B" d="M793.08199656 283.28098679l-11.93699992-1.79599762-31.45999908-3.29700089 42.01799893 33.9000001 2.9550001 9.95800018 19.17700059 39.01600027 25.79799843-25.15399933-46.55099905-52.62700271z"/><path fill="#4D7333" d="M776.9849987 328.06198835l13.88999987 24.35800028 14.53799963 6.53100014 10.48200035-14.92199993-21.23699987-36.9800005-17.67299998 21.01300001z"/><path fill="#7F9D6B" d="M888.25799799 321.41698837l21.26699972-4.41800022-5.9739995-37.97499943-15.29300022 42.39299965z"/><path fill="#5BBB9C" d="M839.63299835 335.90698671l2.01799988 1.27600003-2.01799988-1.27600003zM839.63199615 335.9079876l-58.48600006-37.09199906 58.48600006 37.09199905z"/><path fill="#3B8970" d="M890.19899428 298.68598747l-7.80100024 21.0869999-.73799991 1.75800037 6.31000012-2.15500069 7.75200015-20.97200012-2.95600033-6.0209999-2.5669998 6.30300044z"/></g><g display="block"><path fill="#CCA88E" d="M725.74902344 387.52499866l-12.36100006 14.24199999-5.18799973 5.9740001 6.62299967 6.12799978 16.23899984-22.42300034-5.31299972-3.92099953z"/><path fill="#E3C8B3" d="M713.38702297 364.53099442l-15.8210001 5.97599983-6.42700004 13.94799971 8.14800024 19.1129992 8.9130001 4.17300034.00600005-.00799942 12.51500034-12.84300041-7.33400059-30.35899925z"/><path fill="#9A7A64" d="M726.36002254 386.8239975l-23.47000026-27.87199974-5.32400036 11.55499983 23.15500069 24.3829999 5.02799987-7.36400033.61100006-.70199966z"/><path fill="#CCA88E" d="M708.2000227 407.74099302l-17.06100035-23.28600073-6.5420003 22.65700078 10.75800026 15.56900096 12.85200036-14.9480009-.00699997.0079999z"/><path fill="#9ECB82" d="M749.6850214 278.18899536l-48.47599888 64.45299912 58.45899964 8.89899826 23.01699829-56.19199944-32.99999905-17.15999794z"/><g><path fill="#7F9D6B" d="M701.20202255 342.64099175h.00699997l23.26300049 46.68500083 13.13900018-4.54899978 43.5330007-87.07300186-79.94200134 44.9370008z"/></g><g><path fill="#65874F" d="M782.68402481 295.34799576l-58.20999908 89.1060028 21.10499858-1.59500122 12.12400043-7.33200073 36.9549991-68.47800064-11.97399903-11.70100021z"/></g><g><path fill="#3B8970" d="M720.72202349 394.88999939l31.3100009-10.43500042 5.66999816-8.92700005-33.22899914 8.92700005-23.26299953-41.81300068h-.00800133l-5.90599823 7.75600052 25.42599917 44.49200058z"/></g></g><g display="block"><path fill="#383838" d="M696.57002258 543.49999976L815.3560257 556.4109993l184.2800064-14.65899956-174.8180046-12.80099953-128.24800492 14.54899955z" opacity=".1"/><path fill="#3B8970" d="M849.33602905 509.8179915v16.40299963l20.25399947-6.2539997 11.51699949-8.74299998 3.75899982-14.77499967-35.52999878 13.36899972zM762.30402851 495.05699158l-6.08000088 31.25 17.5360005-.08500004 16.62999987-10.52400017 3.72800064-7.86399984-31.81400013-12.77699995z"/><path fill="#5BBB9C" d="M881.10703337 511.2249899l-31.7710005 14.99700045v8.52399945l26.9470005 2.25900078 33.09300041-2.25900078-28.2690004-23.5209999z"/><path fill="#3B8970" d="M909.3750267 542.86100101H849.3350258v-8.11400032h60.04000091v8.11400032z"/><path fill="#5BBB9C" d="M790.39003086 515.69700146l7.3909998 23.54399967-20.7969997 4.05799961-23.71099973-4.05799961 2.95100022-12.93499994 34.16599941-10.60899973z"/><path fill="#3B8970" d="M797.78103065 547.35498905h-44.50799942v-8.11400032h44.50799942v8.11400032z"/></g><g display="block"><path fill="#7F9D6B" d="M909.52902222 314.6729889l-61.96499825 91.10800075-31.66899967-61.75199795-25.02000141 8.39199829-47.44200134 132.08200073 64.1020031 38.79899597.2329998.17500306 106.32300186-41.86199952-4.5620041-166.94200134z"/><path fill="#9ECB82" d="M887.16702461 321.5369873l-20.9869995 36.64599991-10.68599958-9.59500503-15.86200076-12.67999268-23.7369976 8.12099457-7.27400208 170.34999847 94.80400085-200.28999328-15.45499992 5.28699493-.8030014 2.16100311z"/><path fill="#3B8970" d="M808.62003136 514.37798977l-65.18800164-29.87499905-2.88500213 9.08399964 66.98700332 29.7139988.2329998.17700004 106.57400323-32.01299954-.25099946-9.85099888-105.47000312 32.76399899z"/></g><g display="block"><path fill="#5BBB9C" d="M830.33902454 263.03899384l-3.84800052 16.2879982-36.10099793 16.02100038 54.81999874 38.07799864.32799912.46500015 36.12199879-12.36099815-51.3209982-58.49099922z"/><path fill="#7CD0B4" d="M780.64502144 292.4759922l9.74500036 2.87199974 42.66799975-16.0199995-60.83200074-25.81599903-17.51599884 19.16799927 25.93499947 19.79599952z"/><path fill="#3B8970" d="M865.86701788 238.26299415l.312-.03-.067-.138-.245.168zM841.65302086 327.90199399l-86.94199944-55.22200131-5.02700042 5.50900268 89.94799995 57.71999836 33.12999916 42.9610014 18.06900406-37.18700123-.01100159-20.14499998-49.16700172 6.36400008zM830.33802032 263.03899384L810.388021 249.41099358l-36.67299986-8.36800003-1.48900032 12.46900034 60.83200074 25.81500005 21.36100006 7.18599892 1.38999939-15.81099892-25.47100068-7.6630001z"/></g><g display="block"><path fill="#E3C8B3" d="M901.37000656 233.9070015l-19.95800018-116.52399827-33.16899872-25.55799865L827.19500732 109.625l-43.70399856-2.86999512-7.61100006 6.9299965 15.82299804 30.8770008 27.16500092 111.96699715 39.97800064-11.04000092 42.52399826-11.58199691z"/><path fill="#EFEFEE" d="M848.24400997 98.47600389l33.16800022 18.90799975-19.7760006-26.3909998-16.26599921-4.77299976-3.4280014 5.6040001 6.302001 6.6519997z"/><path fill="#E2E2E2" d="M845.37100792 86.22000313l-33.44999886-9.80999947.79399872 24.92899943 18.04800058 16.0449996 17.4799993-18.90799952-2.87199974-12.25600004z"/><path fill="#CECECE" d="M780.06500816 101.33900404l.35300064 3.91200018 2.70300103 2.22499943 47.58199882 9.9680004.06000138-.06100082-18.8430009-40.97299957-31.85500097 24.92900038z"/><path fill="#9F9F9F" d="M825.59801102 135.88000393l1.59700012 4.80499959-17.23199988 12.56099963-2.2260003-5.6159997 17.86100006-11.74999952zM850.79601097 131.60900497l1.9090004 5.73699987 17.96399975 2.80499995 1.217-3.8849999-21.09000015-4.65699992z"/><path fill="#CCA88E" d="M809.96401024 153.24500084l43.01599884 43.99099922-2.18499947-37.46799946-15.8380003-15.30000019 13.4239998-2.36199951 6.91100024 19.28399944 6.41200066 10.64800024 8.9639988-31.88800096-17.96399975-2.80399895-4.32299996 4.76000023-13.42399978 2.36199951-7.76200009-3.7840004-17.230999 12.56100083zM795.39500809 127.06300354l-11.90300024-20.3069992-19.61700022 33.39399719 9.84300041 11.37600135 2.1619997 29.94899999-8.89099979-9.98500024-6.46299934 9.80200023-10.84199906 4.01099997 8.90699768 25.97500086 9.16900063-2.29100036 5.95800018 1.20499992-2.71100044 16.2689991 2.70900059 14.58200073 38.99699878 15.15099716 7.22699929.48400116-24.54499817-129.61499786z"/><path fill="#9A7A64" d="M767.76001072 208.9870081l3.24699974 17.47500038 8.66699982-20.6760006-11.91399956 3.20100021zM838.62601376 251.0730009l-25.91200066 5.12099982 19.6880002 7.64699984 9.1130004 3.16600036-2.88899994-15.93400001zM756.91200972 188.5110004l15.31400013 10.23900008-4.03700018-13.89000035-11.27699995 3.65100026z"/><path fill="#383838" d="M832.0960102 167.69400024c0 2.80900002-2.27799987 5.08599997-5.08799989 5.08599997-2.80899994 0-5.08599989-2.27699995-5.08599989-5.08599997 0-2.80900001 2.27699995-5.08599996 5.0859999-5.08599996 2.81000001 0 5.08799989 2.27699995 5.08799989 5.08599996zM871.71601295 158.71000671c0 2.80900002-2.27799987 5.08599997-5.08799989 5.08599997-2.80899994 0-5.0859999-2.27699995-5.0859999-5.08599997 0-2.80999994 2.27699996-5.08599996 5.0859999-5.08599996 2.81000002 0 5.0879999 2.27600002 5.0879999 5.08599996z"/><path fill="#EAD3C2" d="M848.38201332 142.10600471l9.7709999 13.89700032 8.4790001 38.24599933-13.65099978 2.98700142-7.385-37.76000023-10.638-15.00799942 13.42399978-2.36200142z"/><path fill="#9F9F9F" d="M744.26000977 129.73700428l16.26599979 51.5539999 5.18599999-1.86399841 11.08199966 6.4109993 3.18999958-40.6070006-12.75499916-7.47899985 16.26099968-30.99500084-3.42499924-5.41699981-35.8050003 28.39700031z"/></g><g display="block"><path fill="#CECECE" d="M852.9800148 197.23500824l-29.24100113 26.3199997 17.91500092 104.34599685 32.83099937 30.22999954 2.50900078 4.45100403-1.13999939 4.42799378-3.09100056 11.85900116 17.97200108 12.48999786-11.98300171-127.51999664-17.07499933-64.71900177-8.69700003-1.88499451z"/><path fill="#EFEFEE" d="M894.18801212 355.11500168l15.34200001-40.44200134-17.51900005-103.99799729-25.37900067-16.4260025-4.95599937 4.87200165 29.05900001 192.23799896 9.87300015-19.15699768-5.06200028-8.20899963-2.7789998-4.04800416 1.421-4.82999801z"/><path fill="#4D7333" d="M895.54701424 363.9930036l-19.69299984 3.0179999-1.36900044-8.87899995 19.70300007-3.01699996 1.3590002 8.87800002z"/><g><path fill="#9A7A64" d="M874.94401455 214.24600163l-9.27600002 1.58699998-17.97399998 3.07399989-1.21800041-5.53499988 17.98100018-3.0699999 9.26899982-1.58299995 1.2180004 5.52699986z"/></g><g><path fill="#9F9F9F" d="M866.63201523 194.2480011L852.9800148 197.236001l9.26300025 5.63199997 4.38900018-8.61999988z"/></g></g><g display="block"><path fill="#383838" d="M730.17601013 736.58099937l-184.55998993-31.5170002-42.52500343 11.28900004 12.1989994-15.27400064-76.64199829-18.31499863-113.4050064-49.25900269-102.45298768 51.13000107 69.9269867 71.02100182 76.70000458 12.96700096 35.8619995-9.8540001 182.51700593 56.25600053 142.37998962-78.44400216z" opacity=".05"/><path fill="#3B8970" d="M234.77700806 629.87800026l25.20300293 48.62599945 33.75200033 7.5170002 62.59599924-25.40999985 11.15900421-48.99200058-77.06000328 28.2130003-55.65000343-9.95399952z"/><path fill="#459E82" d="M220.63700867 620.60500121l23.8619957 28.03100038 42.71100139 13.56399917 23.95499992-29.96099949 50.56299878 4.54500008 17.78099823-33.67500019-48.72999764-20.06299973-54.26999855 28.57299996-55.87199783 8.98599982z"/><path fill="#5BBB9C" d="M220.63700867 620.60499954v-27.31199932l59.18499756 8.51100009 27.82799959-30.43300002 50.28900099 4.24900055 21.56999588 27.48999941-68.343997 29.12900007-90.52799702-11.63400078z"/><path fill="#7CD0B4" d="M220.63700867 593.29300117l62.15100097-57.28000068 53.61100006 10.05600166 21.54000092 29.55099976-81.42900085 35.99900139-55.8730011-18.32600213z"/><path fill="#383838" d="M287.21200752 662.1989975l6.52099991 23.82099914 62.59499931-25.40899658 5.40200043-23.82700157 17.78100205-33.6750002-43.11100197-57.03999805-93.46200371 27.74699784 19.79800415 33.28499984-18.23600006 41.53499985 42.7119999 13.56299973z" opacity=".1"/><path fill="#3B8970" d="M421.87800789 752.88899994l49.2349987-41.95199967-9.55599975-24.2179985-14.4659996-72.31900024-50.30999876-27.49099732-31.81000018 34.42599869-47.69799805 32.79299927 15.0739975 80.31899643 89.53100014 18.44200134z"/><path fill="#459E82" d="M483.73600769 657.87599564l-22.1800003 28.84299945-45.05599785 20.29400063-20.92600027 23.31599903-41.31700167-3.63899994-21.90999985 7.75600052-24.33899689-49.625 63.5719986 8.73000026 25.20199984-26.9070003 86.95399839-8.76799965z"/><path fill="#5BBB9C" d="M483.73600769 657.87600136l-67.23599815 49.13699913-44.92000008-13.46199799-63.5719986-8.73000145 9.26399994-30.69299984 129.81799698-39.72899913 36.64599991 43.47699928z"/><path fill="#7CD0B4" d="M447.09100342 614.39899921l-27.50199509 52.94600201-44.90100145 5.01399994-57.41499663-18.2310009 79.50799656-67.21899986 34.74100018-9.48800278 15.56899643 36.9780016z"/><path fill="#459E82" d="M419.58901596 667.34600449l-102.3160019-13.21800042 54.30600096 39.42300034 48.01000094-26.20499992z"/><path fill="#383838" d="M447.09101486 614.39899826l2.76399994 68.23600006-27.97700119 70.25300217-89.53100204-18.44200134 21.9090004-7.75600052 17.32300185-33.1399994-15.71699905-34.43700027 75.65999985-81.69200134" opacity=".1"/><path fill="#3B8970" d="M269.67900467 733.48800611l23.0380001 22.16799975 56.31400109-17.77199984 12.88199997-25.83900022-59.894001 4.81699943-32.34000016 16.62600088z"/><path fill="#5BBB9C" d="M361.9140091 712.04400513l-12.88399888-24.15400002-54.46900177 20.66000009-36.11700058-7.40300012 11.23600006 32.34000015 29.4250002 2.77199936 62.80900096-24.21499946z"/><path fill="#5BBB9C" d="M258.44500732 701.14600658l40.6609993 35.11200047 49.92499924-48.36900139-51.24199915-10.55900001-39.34399939 23.81600093z"/><path fill="#7CD0B4" d="M276.7340126 690.07499695l9.3749981-48.02199936 31.06100082 12.68099975 31.8599987 33.15499926-70.47200012 30.62599897-1.8239975-28.43999862z"/><path fill="#383838" d="M292.71700668 755.6550026l6.38899994-19.39599991V709.5870037l-12.99599838-67.53499794 31.05999908 12.6819992 17.22299996 17.92099953-35.28700066 36.9319992 49.92399979-21.69799995-16.68299866 34.93099976-39.63000107 32.83499908z" opacity=".1"/><path fill="#CCA88E" d="M615.97599792 675.77199364l14.64599991 47.46000099-10.84599971 15.12800026-34.9460001-33.29600072 31.1459999-29.29200053z"/><path fill="#36899C" d="M630.62101078 723.23200226l31.48299885 2.67500019-5.3429985 15.7420001-13.90400077 3.28000021-15.01600027 1.10700035-9.45499897-11.67900043 12.23499966-11.12500042z"/><path fill="#4DADC4" d="M662.1049989 725.90799713l13.18899982.54600048 5.85199928 7.9039998-30.5019989 20.02199984-7.7859993-.83399963v-8.61600065l19.2469991-19.02199984z"/><path fill="#E3C8B3" d="M594.67501086 702.26399422l23.71100026 32.09399986-7.60200119 8.79100037-14.08899903 2.88699913-25.8150003-14.1779995 3.41900063-15.88800049 20.37599963-13.70599937z"/><path fill="#4DADC4" d="M618.38601625 734.35699844l24.47200072 10.57199955-14.27600098 15.99900008-24.47099972 11.80499982-7.41700077-26.69699955 21.69200075-11.6789999z"/><path fill="#73C9DE" d="M642.8579979 744.9300003l20.3449993 9.53600026 1.6380005 8.81200027-60.72999955 9.45600033 38.74699974-27.80400085z"/><path fill="#5FB5B7" d="M545.61601639 763.27700806l70.35900116-87.50500298-14.0890007-41.62299919-21.09000063-27.19600296-26.83200026 14.62600327-12.88700104 63.03899928 4.53900147 78.65900258z"/><path fill="#42A2A5" d="M527.6819954 608.29100037l-42.98699952 67.48099613-22.44900131 74.1580038 83.3710022 13.3469925 8.34700012-141.69799805-26.2820015-13.28799438z"/><path fill="#CCA88E" d="M584.831007 579.75600243l23.72800064 3.01600074 14.83200074 32.4989996-21.5050006 18.87900066-17.05500078-54.394001z"/><path fill="#E3C8B3" d="M584.831007 579.75600052l38.56000138 35.51599884-11.12400055-35.51599884H584.831007zM532.92099571 561.47799873l51.9090004 18.27900076-13.95000076 27.19700098-42.3880005-5.894001 4.42900086-39.58200074z"/><path fill="#82D2D4" d="M421.6550064 546.3869934l-11.7899971 33.37000275 5.46899796 15.9980011-18.01699829 19.5169983 64.9279992 134.6570053 65.43599922-141.6380043v-42.269001L491.0260086 546.3869934h-69.3710022z"/><path fill="#5FB5B7" d="M491.02701378 546.38599968l37.46500015 54.67399979 4.42900086-39.58199978-41.89400101-15.09200001z"/><path fill="#383838" d="M425.55700684 673.83999825l46.81399726 11.57299995 81.59300042-63.83400154 47.92199707 12.57100105-7.25299836-31.91500091-144.76699829 34.2350006-52.54799652-21.19799995 28.23899842 58.5680008z" opacity=".2"/><path fill="#EAD3C2" d="M481.98400879 610.5150032l75.40800095-15.33300018 5.19199752 11.8010006-8.61999893 14.59500026-78.67900085 41.14200116-.81899643-28.57000113 7.51799774-23.6350007z"/><path fill="#CCA88E" d="M557.39201927 595.18300104l27.43799973-15.42599916 9.8029995 22.47799928-6.83699895 22.47599928-33.83299923-3.13199997 3.42899895-26.39599943z"/><path fill="#EAD3C2" d="M584.83102226 579.75600243l23.72800064 21.8550005-6.67300033 32.5390005-14.09000015-9.43900108-2.96500016-44.95499992z"/><path fill="#99E4E1" d="M409.86601639 579.75699997l72.11800003 30.75899887-9.61199951 74.89699936-75.05400086-70.14099884 12.54800034-35.5149994z"/></g><g display="block"><path fill="#616465" d="M509.74800682 385.10099411l35.86800003 13.08400059-17.32100004 38.9840002-12.61899954-25.29400038-5.92800045-26.77400041z"/><path fill="#82D2D4" d="M367.29300499 416.64499664l-14.54400063-6.77600097-20.86899948-23.1799984 94.99499893-70.28000069 15.41699982 25.96500015 6.24200058 21.464-41.125 35.41399836-40.11599922 17.39300155z"/><path fill="#99E4E1" d="M426.87500381 316.40899658l79.81000138 14.28000069 3.06200027 54.41200065-34.1600008-6.29600143-27.05300045-14.9659996-21.6590004-47.4300003z"/><path fill="#42A2A5" d="M331.88000488 386.68899727l20.3419993 61.38199997 11.77900004-15.70399952 3.29099941-15.72200048-35.41199875-29.95599997z"/><path fill="#36899C" d="M431.26700354 326.02599716l-3.82800007 2.65099907 4.9410001 11.5490005-9.20499956 6.2889998 3.28599977 7.65299988 9.61699986-6.30499983 4.8310001 10.50499964 4.01399946-2.43399907-2.63199997-13.55800046-11.0239997-16.34999953z"/><path fill="#429DB3" d="M431.26700878 326.02599716l5.51499987 1.34499932 4.67699992 9.75000047 11.37499965 2.6609999 1.45100021 7.20800006-9.25499988-1.89899993 4.94700027 11.31099963-5.05400014-.46899986-13.6559999-29.90699959z"/><path fill="#E3C8B3" d="M509.74700928 385.10199738l43.31700134 121.62100029-59.59800339 23.61599922-9.86400032 64.84300232-64.92299843-58.5870018-42.07700348-25.6969986 20.87200165-18.33600044 14.314003 16.3789997 3.54599761-72.27199935 17.68700028-16.78199768 21.92300033-4.85300446 54.8030014-29.9319992z"/><path fill="#CCA88E" d="M415.3350029 436.66899109L455.3750038 544.9209957l38.09199906-14.58200073-9.77199936 14.52300072 5.88199997 11.05400085-5.97399902 39.2670021-107-84.28500365 20.87099838-18.33600045 14.31400108 16.37900019-4.85700035-33.05899859 8.40399933-39.21300506zM506.62500381 420.05500221l-15.85000038 36.50200081-7.7539997 17.10000038-40.7140007-28.11600065 64.31800078-25.48600054z"/><path fill="#EAD3C2" d="M468.40400124 435.09600258l14.61700046 38.56099892 12.54100048-4.64500046-14.9140005-38.81499863-12.24400044 4.89900017z"/><path fill="#9A7A64" d="M495.56300735 469.01199913l-3.71999979 9.86800003-8.82200002-5.22300002 12.54199981-4.64500001zM493.46600342 530.33799934l-3.88899994 25.57799912-45.64099884-6.8489995 49.52999878-18.72899962zM412.46900463 520.53500366l-1.17000008 17.69400025-9.95199966-7.84000016 11.12199974-9.85400009zM406.46800137 515.70298958l-10.89600003-11.39599991-7.40600002 6.60199994 18.30200005 4.79399997z"/><path fill="#616465" d="M454.94400787 415.0329938l1.77000046-26.69799853-8.18099975-24.4960022-81.24099923 52.80700064-29.1760006 60.84300089 39.23999978-17.56399918 37.97800064-23.25500107 17.1989994-9.39500045 22.4109993-12.2420001z"/><path fill="#383838" d="M415.33400726 436.66798782l-3.54600143 72.27300263-14.31399918-16.37900162-20.87100055 18.33600235-38.48700116-33.41100168 77.21800232-40.81900168z"/><path fill="#858585" d="M448.53299904 363.83899689l61.2140007 21.263-31.52800035 22.48499919-23.27499915 7.44600105-6.4110012-51.19400024z"/><path fill="#616465" d="M468.40400314 435.09599918l-3.27699947-8.52300018-22.8210001 18.96800041 26.09799957-10.44500023zM480.64800644 430.1960001l25.97599983-10.1420002-28.85400009 1.84800005 2.87800026 8.29400015z"/><path fill="#5FB5B7" d="M472.37200928 499.31499529l29.89599943 5.55999994 16.38399935-23.62199974-19.70799947 15.6099999-26.57199931 2.4519999z"/><path fill="#1F878A" d="M483.79400444 498.25999641l11.38000047-11.1459999 15.29200042.6209998-11.52300048 9.1290002-15.14900041 1.3959999z"/><path fill="#383838" d="M468.25901031 457.24299622c0 3.3210001-2.69299983 6.01399993-6.01499993 6.01399993-3.32100003 0-6.01299994-2.69299983-6.01299994-6.01399993 0-3.3210001 2.6919999-6.01399994 6.01299994-6.01399994 3.3220001 0 6.01499993 2.69299984 6.01499993 6.01399994zM504.94600677 443.09799957c0 3.3210001-2.69299983 6.01399994-6.01499993 6.01399994-3.32100003 0-6.01299994-2.69299984-6.01299994-6.01399994 0-3.3210001 2.6919999-6.01399994 6.01299994-6.01399994 3.3220001 0 6.01499993 2.69299984 6.01499993 6.01399994z"/></g><path fill="#7F9D6B" d="M2010.33887386 416.81499481l-54.34300136-6.35900116 11.0359993 49.37200165 78.68200302-21.85500073-35.37500096-21.15799976z" display="block"/><g display="block"><path fill="#668750" d="M2040.00004578 464.9999733l53.5 19.5-.5-23.5-53 4z"/><path d="M1855.80004883 562.76097918l253.96899795 58.47999906 148.59899521-49.01199913-210.25299644-72.44999885-192.31499672 62.98199892z" opacity=".05"/><path fill="#E3C8B3" d="M1916.65904999 495.6769743l-32.58000183 10.1279997 28.29700088 10.1959997 4.28300095-20.3239994z"/><path fill="#9ECB82" d="M1879.5750494 500.21297455l-6.30300045 8.92899942 31.57999992 24.10099936 9.6420002-17.24199939-34.91899967-15.7879994z"/><path fill="#E3C8B3" d="M1904.8530469 533.24397564l-18.21099902 20.73800087 47.8919983-10.87000042-29.68099929-9.86800045z"/><path fill="#9ECB82" d="M1879.88505173 550.04197553l-3.8050003 12.12299964 72.37999725.36999988-.78899765-15.05599952-5.04100037-9.78599953-62.74499893 12.34899953z"/><path fill="#7F9D6B" d="M1928.11804771 540.97797298l20.34199906 21.55800057-.78899956-15.05800009-19.5529995-6.50000048z"/><path fill="#4D7333" d="M2039.9810543 465.01897049l22.8499992 36.8140006 25.4509995 24.5040002 4.45899963-26.58900023v-18.57100058l-.06799889-4.86499882-11.58600044-1.9090004-41.105999-9.38400077z"/><g><path fill="#65874F" d="M2039.9810505 465.01897049l48.30200004 61.31699943-4.31099892 29.89600182-61.85700035 15.99699783 3.33600044-58.26699972 14.52999878-48.94299936z"/></g><g><path fill="#9ECB82" d="M2039.98105621 465.0189743l-102.4980011-35.59600067 36.2640009 75.63999987 48.36799907 67.16599989 17.86600113-107.20999909z"/></g><g><path fill="#79AB67" d="M1937.48304749 429.42297363l-32.63000107 103.8199997 117.26200103 38.98600006-84.63199996-142.80599976z"/></g></g><g display="block"><path fill="#9ECB82" d="M2032.60789037 358.38400269l-22.26999974 58.4319992 50.15399932-29.2159996-27.88399958-29.2159996z"/><path fill="#79AB67" d="M2043.5298915 392.71700287l-33.19099952 24.10000038 35.41399956 33.37000084 23.98399925-.47100067 28.41600228-34.51900006-27.32200241-42.3799982-27.30099917 19.8999977z"/><path fill="#65874F" d="M2010.33789063 416.81500053l59.39900016 32.90000058 14.42899895-19.47099972 8.15600204 46.55999946-11.23400115-2.40099906-41.10699988-9.38400078-29.64300013-48.20400048z"/></g><g display="block"><path fill="#CCA88E" d="M1966.09390068 439.35899544l-7.51699972 25.65999985-6.77999973-3.3380003-5.2249999-16.92199946 6.72999977-5.32599973 12.79199958-.07400036zM1919.16390169 421.45099258l-9.79000032 20.52500046 2.65400028 23.04300034 18.92800045-14.83300019-2.37300015-15.2010002-9.41900026-13.5340004z"/><path fill="#E3C8B3" d="M1955.99490261 410.45599365l-36.83100033 10.99599934 11.79199982 28.7340002 35.13800049-10.8260002-10.09899998-28.90399934z"/></g><g display="block"><path fill="#9A7A64" d="M2028.84692001 346.55700302l4.78800011 15.05099964 9.89600039 31.1090002 16.1170001-21.84800004 3.18300056-18.57700014-17.91900056-8.79699993-16.0650006 3.06200027z"/><path fill="#E3C8B3" d="M1976.13891602 234.18401718l-3.97399903 102.80599976 90.66699982 15.30199814 25.4509964-60.04599897-21.67299652-55.6750017-41.83200169-4.25499726-48.63899898 1.86800003zM2042.954916 213.05700827l-6.49099922-9.43500018-17.3759999-6.4230001-14.65199998 4.0420003-10.00499916 12.14899968 25.0509991 2.71500016 23.47299916-3.04799986z"/><path fill="#CCA88E" d="M2023.46391678 247.3060112l-4.77199936 7.15699959-1.59100056 41.35899925 16.3300004-33.14199924 14.68600035-3.04800034-24.65300083-12.32599926zM2007.15791798 254.06700706l-19.88400078-9.54500007 17.8220005 32.90200043 2.06200028-23.35700036zM2066.60991478 236.5690155l-3.77700043 115.72399903 19.65600062-32.48999977 5.79400015-27.55799985-6.74300051-30.91899944-14.92999983-24.75699997z"/><path fill="#9ECB82" d="M2151.51391602 212.31001091l-58.9089985-3.43600082-48.5890007 4.17800045-25.0150013.16900062-24.0510025.16699982-8.65899658-1.38899994-8.55799865 1.50599956-1.59300232 20.67900038 90.47000122 2.38600016 22.6420002 5.408 24.42899894-4.16600037 20.78700257 5.77400112 22.6119995-4.62800122-5.56600188-26.64799976z"/><path fill="#65874F" d="M2023.8609171 224.24200672l-10.34599993-10.98100036-11.12999991 10.58300036 10.72199991 11.31500035 10.75399992-10.91700035z"/><path fill="#5BBB9C" d="M2151.51391602 212.310009l-13.12299729-54.47900009-113.73400116 15.90400124-7.95699692 12.19899964 2.38899994 11.2650001 23.86499787 15.85800076 108.55999756-.74700165z"/><path fill="#459E82" d="M2024.65691566 173.73501015l-42.9489994 6.36400032-3.97699928 33.40600013 16.6989994-.11499977 24.65799904-16.19200039 5.56900024-23.4630003z"/><path fill="#3B8970" d="M2048.1179161 259.6320095l-9.54299974-10.7340002-15.11099958-1.592 24.65399933 12.3260002zM2007.15791798 254.06600618l-7.95200038-8.74999976-11.9320004-.7939999 19.88400078 9.54399966z"/><path fill="#EAD3C2" d="M2007.15791821 254.06600761l11.53400016.39699936-1.59299993 41.35900116-13.52100039-1.19199943 3.58000016-40.56400109z"/><path fill="#9A7A64" d="M2017.09991693 295.82100296l-7.15800017 7.954-6.36400014-9.14400006 13.52200031 1.19000006z"/><path fill="#9ECB82" d="M2022.08591557 321.97500777l-13.12299991 7.55699992-10.33899999-9.14799976 23.4619999 1.59099984z"/><path fill="#65874F" d="M2039.98191643 312.82901287l-17.89600086 9.14699984-23.4609995-1.59099984-9.14700126-9.5469997 9.94100094 3.9779998 10.33999967-3.9779998 16.30499983 5.56899977 13.91800118-3.57800007z"/><path fill="#459E82" d="M2066.6099205 236.56900597l21.6739999 55.67599868 19.6310004-27.36699935 5.7649994-27.06700066-47.0699997-1.24199867z"/><path fill="#383838" d="M2001.68391657 264.68601227c0 3.13599992-2.54200006 5.67799997-5.67799997 5.67799997-3.13599992 0-5.67799998-2.54200005-5.67799998-5.67799997s2.54200006-5.67799998 5.67799998-5.67799998c3.13599991 0 5.67799997 2.54200006 5.67799997 5.67799998zM2035.70291758 267.19001007c0 3.13599992-2.54299999 5.67799997-5.67899998 5.67799997-3.13499992 0-5.67699997-2.54200005-5.67699997-5.67799997s2.54200005-5.67799997 5.67699997-5.67799997c3.136 0 5.67899998 2.54200005 5.67899998 5.67799997z"/></g><g display="block"><path fill="#3B8A71" d="M2077.48290634 384.38200378l10.23400116 107.23500061 22.37199783-10.46899414 4.93399811-85.99700927-37.5399971-10.7689972z"/><path fill="#5BBB9C" d="M2113.6789093 237.81100464l43.39999962 1.1459999 19.3239994 74.95799828 9.34199906 20.09800148-.23500061 15.23399735-47.3459984-21.230999-49.88099898-35.77099955 25.39599991-54.43399846z"/><path fill="#459E82" d="M2088.2829094 292.2440033l-18.54500199 43.75500297 20.72500229 38.53900051 23.2159996 20.34800053 12.80799973 25.51799965 19.0600003 17.18800354 25.80099869-42.86100388 14.16200256-45.4829998-97.22700119-57.00400352z"/><path fill="#5BBB9C" d="M2185.50991058 349.24799728l25.54699993 10.02099991 39.30700017 27.1390009-41.8880005 20.45300006-35.14800071 23.62899971-27.78199959 7.1020012 39.9640007-88.34400178zM2069.73790836 335.99900818l-26.20800113 56.71899986 36.55900132 7.86300087 33.5890013-5.6949997-43.94000149-58.88700103z"/><path fill="#3B8970" d="M2113.67790604 394.88499832l-11.79999924 47.0890007 7.8909998 39.0890007 32.13899898-26.21500015 3.63800049-17.25700053-31.86800003-42.70600072z"/><path fill="#459E82" d="M2109.7699089 481.06300735l63.43000031-28.8410015 35.27600098-45.36100197-62.9300003 30.73000192-35.77600098 43.47200155z"/><path fill="#7CD0B4" d="M2250.36491013 386.40800095l-73.96199799-72.49199677 9.1079998 35.3319984 64.85399819 37.15999837z"/></g><path fill="#9ECB82" d="M2043.53090286 392.71601105l49.21100045 107.02999878 31.67500114-25.34399987-10.73900032-79.5170002-70.14700127-2.16899871z" display="block"/><path fill="#79AB67" d="M2124.41690394 474.40200806l-31.67499873 25.34499931 9.13699913 78.51999855 55.2009983-16.10199738-32.6629987-87.76300048z" display="block"/><g display="block"><path fill="#CCA88E" d="M2124.91090775 584.38900495l-15.14300037 10.0480001h-10.64700055l2.75700092-16.17000008 23.033 6.12199998z"/><path fill="#E3C8B3" d="M2157.07990456 562.16501522l7.6949997 12.76699996-39.86499978 9.45899987-23.03100014-6.12199974 55.20100022-16.10400009z"/><path fill="#CCA88E" d="M2164.77690744 574.93100548l24.84399939 19.50599956-33.07499957 2.22399998-31.63499951-12.27099979 39.8659997-9.45899975z"/></g><path fill="#383838" d="M141.1080017 535.43301964l26.23899842 8.17599964-15.05999756 16.86299944-55.18400049 25.22800112-77.18099737-31.92400086 28.89699554-18.1489991 24.52900124-15.52100181 67.76000023 15.32700157z" opacity=".05" display="block"/><path fill="#79AB67" d="M139.16999507 533.22399902l12.80099988 14.59800005-13.8959999 4.03799963-4.38599969-9.82899981 5.48099971-8.80699987z" display="block"/><path fill="#7F9D6B" d="M150.8219986 522.71600342l-15.64300156 19.53999996-57.78499985.15000057 52.29300118-17.93200016 21.13500023-1.75800037z" display="block"/><g display="block"><path fill="#C2E0A0" d="M155.92700386 503.55298805l22.55599976-5.37800026 13.0380001 13.06900005-5.18799972 7.66700001-1.28000069 5.61800003-21.68699932-1.5710001-33.6789999 1.5159998 26.23999977-20.92099953z"/><path fill="#7F9D6B" d="M172.40100193 510.16698802c.12899995 1.54400002 1.4849999 2.69299995 3.02899992 2.564 1.54499996-.12700009 2.69299996-1.48399996 2.56400002-3.029-.12800003-1.54399995-1.48500002-2.69199995-3.029-2.56399993-1.54399996.12899995-2.69199996 1.48399997-2.56399994 3.02899993z"/><path fill="#79AB67" d="M141.0110035 515.44698763l32.61800002 3.02300006 17.8920002-7.2250002-6.4680004 13.2840004-55.36599923-.05500031 11.3239994-9.02699995z"/><g><path fill="#7F9D6B" d="M155.92700386 503.55298805L138.67000389 527.210989l-8.9829998-2.73700047 26.23999977-20.92100048z"/></g></g><g display="block"><path fill="#A5D692" d="M129.68599665 524.47296143l11.98399961 38.8029995-14.20399952 4.32100105-4.41000032-14.48700047-3.61999941-25.12099934 10.24999964-3.51600074z"/><path fill="#79AB67" d="M119.43699646 527.98896027l8.02799988 39.6080017-6.52600002-1.4300003-1.50199986-38.1780014z"/></g><g display="block"><path fill="#79AB67" d="M77.394001 542.40401411l-4.61399936 8.54299998-16.11500025-1.0819999 3.30899984 11.76300037-15.94199973-.78000068 4.7869997-25.22200012 14.39100003 1.87800026 14.18399978 4.9000001z"/><path fill="#7F9D6B" d="M72.78000164 550.94701457l-21.79599953-6.34300017 8.98999977 17.02400016-.80100011-9.64100003 13.60699987-1.03999996z"/></g><g display="block"><path fill="#79AB67" d="M48.62699509 533.3150158l-16.81699992-2.11799956-3.63100004-15.62999964 8.57299996 12.01899958 13.44099998-3.44799999-1.56599998 9.1769996z"/><path fill="#7F9D6B" d="M31.8099947 531.19701624l18.95800018-.1559999-1.94799995 4.58799982-17.01000023-4.43199992z"/></g><g display="block"><path fill="#459E82" d="M46.7219963 509.96499884l20.85100175-16.32099974 12.35400009-19.53199959 31.2319994 2.50599861 20.45699977-2.40799904 24.31000138 29.34299994-15.29600144 9.80099964-10.94299888 11.12000036-27.17700088 6.92199898-25.1160003 11.01000023-14.1839981-4.90099907-14.39100266-1.8770008-2.09700012-25.66299952z"/><path fill="#7CD0B4" d="M79.92699623 474.11199951l25.49499986 22.62800026 26.19299987-22.52999973-51.68799973-.09800053z"/><path fill="#3B8970" d="M105.42299604 496.73999786l-36.763 9.97000027 8.7350006 35.6960001 52.29299927-17.93300009-24.26499987-27.73300028z"/><path fill="#3B8970" d="M68.65999699 506.70999908l11.2680006-32.59700012-33.20600128 35.8520012 21.93800068-3.25500108z"/><path fill="#7CD0B4" d="M151.2119999 497.86199951l-26.79100037 20.59399986 5.2670002 6.01799965 26.23900032-20.92199993-4.71500016-5.68999958z"/><path fill="#5BBB9C" d="M124.42199707 518.45499992l-49.210001 14.59899974 2.18300057 9.35299993 52.29300118-17.93199969-5.26600075-6.01999998z"/><path fill="#7CD0B4" d="M75.21199512 533.05299973l-27.28499984-8.33399987.8920002 10.90899992 28.5760002 6.7789998-2.18300056-9.35399985z"/><path fill="#7F9D6B" d="M129.68699408 524.47399902l-11.90399981 8.01399994-2.01800013-3.23999995 13.92199994-4.77399999z"/></g></g></svg>